<svg width="24" height="25" viewBox="0 0 24 25" fill="none" xmlns="http://www.w3.org/2000/svg">
<g clip-path="url(#clip0_1221_16694)">
<path d="M12.4999 8.5H10.9999V14.5L15.7499 17.35L16.4999 16.12L12.4999 13.75V8.5ZM17.3369 2.31L21.9439 6.155L20.6639 7.69L16.0539 3.847L17.3369 2.31ZM6.66288 2.31L7.94489 3.846L3.33688 7.69L2.05688 6.154L6.66288 2.31ZM11.9999 4.5C7.02988 4.5 2.99988 8.53 2.99988 13.5C2.99988 18.47 7.02988 22.5 11.9999 22.5C16.9699 22.5 20.9999 18.47 20.9999 13.5C20.9999 8.53 16.9699 4.5 11.9999 4.5ZM11.9999 20.5C8.13988 20.5 4.99988 17.36 4.99988 13.5C4.99988 9.64 8.13988 6.5 11.9999 6.5C15.8599 6.5 18.9999 9.64 18.9999 13.5C18.9999 17.36 15.8599 20.5 11.9999 20.5Z" fill="#285D9A"/>
</g>
<defs>
<clipPath id="clip0_1221_16694">
<rect width="24" height="24" fill="white" transform="translate(0 0.5)"/>
</clipPath>
</defs>
</svg>
