<svg width="209" height="210" viewBox="0 0 209 210" fill="none" xmlns="http://www.w3.org/2000/svg">
<path d="M208.865 104.576C208.865 126.66 201.883 148.177 188.92 166.044C175.957 183.911 157.678 197.209 136.704 204.033C115.729 210.858 93.1356 210.858 72.161 204.033C51.1865 197.209 32.9078 183.91 19.9448 166.044L104.432 104.576H208.865Z" fill="#F4BE37"/>
<path d="M59.2535 198.859C43.3945 191.239 29.7146 179.731 19.4832 165.403L104.432 104.576L59.2535 198.859Z" fill="#FF9F40"/>
<path d="M71.7549 5.25137C87.4612 0.0698261 104.172 -1.30264 120.511 1.24693C136.851 3.7965 152.352 10.1952 165.74 19.9164C179.127 29.6376 190.017 42.4034 197.515 57.1631C205.012 71.9228 208.902 88.2544 208.865 104.814L104.432 104.576L71.7549 5.25137Z" fill="#5388D8"/>
<path d="M20.2052 166.401C10.4618 153.091 4.00266 137.661 1.35573 121.372C-1.29119 105.083 -0.0507173 88.3978 4.97574 72.6809C10.0022 56.964 18.6719 42.6615 30.276 30.9428C41.8802 19.2241 56.0893 10.4218 71.7415 5.25579L104.432 104.576L20.2052 166.401Z" fill="#0D2535"/>
</svg>
